<svg width="13" height="23" viewBox="0 0 13 23" fill="none" xmlns="http://www.w3.org/2000/svg">
<path d="M1.3401 0.229813L0.22344 1.38204C0.0743236 1.53557 0 1.71243 0 1.91238C0 2.11184 0.0743236 2.28862 0.22344 2.44216L9.0017 11.4999L0.223675 20.5572C0.0745585 20.7108 0.000234578 20.8876 0.000234578 21.0873C0.000234578 21.2871 0.0745585 21.4639 0.223675 21.6174L1.34041 22.7695C1.48921 22.9233 1.66055 23 1.85418 23C2.04766 23 2.21899 22.9231 2.3678 22.7695L12.7767 12.03C12.9256 11.8764 13 11.6996 13 11.4999C13 11.3002 12.9256 11.1236 12.7767 10.9702L2.3678 0.229813C2.21892 0.0762804 2.04758 -5.52933e-07 1.85418 -5.52933e-07C1.66055 -5.52933e-07 1.48921 0.0762804 1.3401 0.229813Z" fill="#596EBD"/>
</svg>
