<svg width="13" height="23" viewBox="0 0 13 23" fill="none" xmlns="http://www.w3.org/2000/svg">
<path d="M11.6599 22.7702L12.7766 21.618C12.9257 21.4644 13 21.2876 13 21.0876C13 20.8882 12.9257 20.7114 12.7766 20.5578L3.9983 11.5001L12.7763 2.44281C12.9254 2.28919 12.9998 2.11241 12.9998 1.9127C12.9998 1.71292 12.9254 1.53614 12.7763 1.3826L11.6596 0.230542C11.5108 0.0766858 11.3395 0 11.1458 0C10.9523 0 10.781 0.0769279 10.6322 0.230542L0.223284 10.97C0.0744022 11.1236 -2.12374e-08 11.3004 -2.12374e-08 11.5001C-2.12374e-08 11.6998 0.0744022 11.8764 0.223284 12.0298L10.6322 22.7702C10.7811 22.9237 10.9524 23 11.1458 23C11.3395 23 11.5108 22.9237 11.6599 22.7702Z" fill="#596EBD"/>
</svg>
