<svg width="18" height="18" viewBox="0 0 18 18" fill="none" xmlns="http://www.w3.org/2000/svg">
<path d="M16.2803 4.17374L13.8263 1.71974C13.6856 1.57914 13.4949 1.50015 13.296 1.50015C13.0971 1.50015 12.9064 1.57914 12.7658 1.71974L2.94751 11.538C2.86495 11.6199 2.80279 11.7201 2.76601 11.8305L1.53901 15.513C1.50148 15.6257 1.49125 15.7457 1.50916 15.8631C1.52707 15.9805 1.57261 16.092 1.64203 16.1884C1.71146 16.2847 1.80278 16.3632 1.90848 16.4174C2.01418 16.4716 2.13123 16.4999 2.25001 16.5C2.33061 16.5 2.41066 16.4868 2.48701 16.461L6.16951 15.234C6.27987 15.1972 6.38006 15.135 6.46201 15.0525L16.2803 5.23424C16.4209 5.0936 16.4999 4.90287 16.4999 4.70399C16.4999 4.50512 16.4209 4.31439 16.2803 4.17374ZM5.52676 13.8667L3.43576 14.5642L4.13326 12.4732L10.8405 5.76524L12.2348 7.15949L5.52676 13.8667ZM13.296 6.09899L11.901 4.70399L13.296 3.31049L14.6895 4.70399L13.296 6.09899Z" fill="#596EBD"/>
</svg>
