<svg width="16" height="16" viewBox="0 0 16 16" fill="none" xmlns="http://www.w3.org/2000/svg">
<g clip-path="url(#clip0_3_75)">
<path fill-rule="evenodd" clip-rule="evenodd" d="M9.98499 11.0355C9.13824 11.6623 11.7712 8.96975 11.022 9.99325C11.0407 9.99175 11.006 10.0485 10.8895 10.1908C10.8895 10.1908 12.8905 12.1783 13.8727 13.1898C14.2137 13.5585 13.5985 14.2945 13.1805 13.9103C12.291 13.0473 10.1862 10.9025 10.183 10.899L9.98499 11.0355Z" fill="#25255F"/>
<path d="M7.04474 12.0405C8.33224 12.028 9.60674 11.4947 10.5232 10.589C11.6117 9.51324 12.1722 7.92174 11.9767 6.40224C11.6417 3.79849 9.50124 2.03149 7.01274 2.03149C5.12199 2.03149 3.28449 3.21424 2.47849 4.92924C1.86149 6.24224 1.86024 7.82749 2.47849 9.14274C3.27874 10.8457 5.08624 12.0222 6.98049 12.0405C7.00199 12.0405 7.02349 12.0405 7.04474 12.0405ZM6.98574 11.2062C5.06299 11.1877 3.26899 9.70074 2.91224 7.79424C2.66074 6.45024 3.13549 4.99574 4.12449 4.04124C5.27899 2.92649 7.09374 2.55324 8.60274 3.18499C9.95274 3.75024 10.9632 5.06274 11.1495 6.50874C11.309 7.74824 10.8642 9.04724 9.99024 9.94199C9.22349 10.727 8.14824 11.1955 7.03949 11.2062C7.02149 11.2062 7.00374 11.2062 6.98574 11.2062Z" fill="#25255F"/>
</g>
<defs>
<clipPath id="clip0_3_75">
<rect width="16" height="16" fill="white"/>
</clipPath>
</defs>
</svg>
